<mxfile host="Electron" modified="2024-01-23T19:35:09.129Z" agent="Mozilla/5.0 (Windows NT 10.0; Win64; x64) AppleWebKit/537.36 (KHTML, like Gecko) draw.io/22.1.18 Chrome/120.0.6099.199 Electron/28.1.2 Safari/537.36" etag="y8C5ASnUNiaiy-SsNaxL" version="22.1.18" type="device">
  <diagram name="Page-1" id="EVpkC4bHWGLZ3YGjp6nC">
    <mxGraphModel dx="2632" dy="376" grid="1" gridSize="10" guides="1" tooltips="1" connect="1" arrows="1" fold="1" page="1" pageScale="1" pageWidth="1654" pageHeight="1169" math="0" shadow="0">
      <root>
        <mxCell id="0" />
        <mxCell id="1" parent="0" />
        <mxCell id="UBEUGFPFDz7dUq5-_0DB-59" value="" style="rounded=1;whiteSpace=wrap;html=1;fillColor=#d5e8d4;strokeColor=#82b366;" vertex="1" parent="1">
          <mxGeometry x="-40" y="310" width="660" height="60" as="geometry" />
        </mxCell>
        <mxCell id="UBEUGFPFDz7dUq5-_0DB-58" value="" style="rounded=1;whiteSpace=wrap;html=1;fillColor=#e1d5e7;strokeColor=#9673a6;" vertex="1" parent="1">
          <mxGeometry x="-40" y="130" width="660" height="80" as="geometry" />
        </mxCell>
        <mxCell id="UBEUGFPFDz7dUq5-_0DB-1" value="N-1" style="rounded=0;whiteSpace=wrap;html=1;" vertex="1" parent="1">
          <mxGeometry x="100" y="160" width="40" height="40" as="geometry" />
        </mxCell>
        <mxCell id="UBEUGFPFDz7dUq5-_0DB-2" value="X&lt;sup&gt;N&lt;/sup&gt;" style="text;html=1;align=center;verticalAlign=middle;resizable=0;points=[];autosize=1;strokeColor=none;fillColor=none;" vertex="1" parent="1">
          <mxGeometry x="100" y="130" width="40" height="30" as="geometry" />
        </mxCell>
        <mxCell id="UBEUGFPFDz7dUq5-_0DB-3" value="N-2" style="rounded=0;whiteSpace=wrap;html=1;" vertex="1" parent="1">
          <mxGeometry x="200" y="160" width="40" height="40" as="geometry" />
        </mxCell>
        <mxCell id="UBEUGFPFDz7dUq5-_0DB-4" value="X&lt;sup&gt;N-1&lt;/sup&gt;" style="text;html=1;align=center;verticalAlign=middle;resizable=0;points=[];autosize=1;strokeColor=none;fillColor=none;" vertex="1" parent="1">
          <mxGeometry x="190" y="130" width="50" height="30" as="geometry" />
        </mxCell>
        <mxCell id="UBEUGFPFDz7dUq5-_0DB-5" value="" style="endArrow=none;dashed=1;html=1;dashPattern=1 3;strokeWidth=2;rounded=0;" edge="1" parent="1">
          <mxGeometry width="50" height="50" relative="1" as="geometry">
            <mxPoint x="250" y="145" as="sourcePoint" />
            <mxPoint x="370" y="144.82999999999998" as="targetPoint" />
          </mxGeometry>
        </mxCell>
        <mxCell id="UBEUGFPFDz7dUq5-_0DB-6" value="" style="endArrow=none;dashed=1;html=1;dashPattern=1 3;strokeWidth=2;rounded=0;" edge="1" parent="1">
          <mxGeometry width="50" height="50" relative="1" as="geometry">
            <mxPoint x="250" y="180" as="sourcePoint" />
            <mxPoint x="370" y="179.82999999999998" as="targetPoint" />
          </mxGeometry>
        </mxCell>
        <mxCell id="UBEUGFPFDz7dUq5-_0DB-7" value="1" style="rounded=0;whiteSpace=wrap;html=1;" vertex="1" parent="1">
          <mxGeometry x="380" y="160" width="40" height="40" as="geometry" />
        </mxCell>
        <mxCell id="UBEUGFPFDz7dUq5-_0DB-8" value="X&lt;sup&gt;2&lt;/sup&gt;" style="text;html=1;align=center;verticalAlign=middle;resizable=0;points=[];autosize=1;strokeColor=none;fillColor=none;" vertex="1" parent="1">
          <mxGeometry x="380" y="130" width="40" height="30" as="geometry" />
        </mxCell>
        <mxCell id="UBEUGFPFDz7dUq5-_0DB-9" value="0" style="rounded=0;whiteSpace=wrap;html=1;" vertex="1" parent="1">
          <mxGeometry x="480" y="160" width="40" height="40" as="geometry" />
        </mxCell>
        <mxCell id="UBEUGFPFDz7dUq5-_0DB-10" value="X&lt;sup&gt;1&lt;/sup&gt;" style="text;html=1;align=center;verticalAlign=middle;resizable=0;points=[];autosize=1;strokeColor=none;fillColor=none;" vertex="1" parent="1">
          <mxGeometry x="480" y="130" width="40" height="30" as="geometry" />
        </mxCell>
        <mxCell id="UBEUGFPFDz7dUq5-_0DB-18" style="edgeStyle=orthogonalEdgeStyle;rounded=0;orthogonalLoop=1;jettySize=auto;html=1;entryX=1;entryY=0.5;entryDx=0;entryDy=0;" edge="1" parent="1" source="UBEUGFPFDz7dUq5-_0DB-12" target="UBEUGFPFDz7dUq5-_0DB-13">
          <mxGeometry relative="1" as="geometry" />
        </mxCell>
        <mxCell id="UBEUGFPFDz7dUq5-_0DB-12" value="" style="shape=orEllipse;perimeter=ellipsePerimeter;whiteSpace=wrap;html=1;backgroundOutline=1;" vertex="1" parent="1">
          <mxGeometry x="630" y="330" width="20" height="20" as="geometry" />
        </mxCell>
        <mxCell id="UBEUGFPFDz7dUq5-_0DB-21" value="" style="edgeStyle=orthogonalEdgeStyle;rounded=0;orthogonalLoop=1;jettySize=auto;html=1;" edge="1" parent="1" source="UBEUGFPFDz7dUq5-_0DB-13" target="UBEUGFPFDz7dUq5-_0DB-16">
          <mxGeometry relative="1" as="geometry" />
        </mxCell>
        <mxCell id="UBEUGFPFDz7dUq5-_0DB-13" value="0" style="rounded=0;whiteSpace=wrap;html=1;" vertex="1" parent="1">
          <mxGeometry x="520" y="320" width="40" height="40" as="geometry" />
        </mxCell>
        <mxCell id="UBEUGFPFDz7dUq5-_0DB-14" style="edgeStyle=orthogonalEdgeStyle;rounded=0;orthogonalLoop=1;jettySize=auto;html=1;entryX=0.004;entryY=0.171;entryDx=0;entryDy=0;entryPerimeter=0;" edge="1" parent="1" source="UBEUGFPFDz7dUq5-_0DB-9" target="UBEUGFPFDz7dUq5-_0DB-15">
          <mxGeometry relative="1" as="geometry">
            <mxPoint x="502.5" y="285" as="targetPoint" />
          </mxGeometry>
        </mxCell>
        <mxCell id="UBEUGFPFDz7dUq5-_0DB-17" style="edgeStyle=orthogonalEdgeStyle;rounded=0;orthogonalLoop=1;jettySize=auto;html=1;exitX=1;exitY=0.5;exitDx=0;exitDy=0;entryX=0.5;entryY=0;entryDx=0;entryDy=0;" edge="1" parent="1" source="UBEUGFPFDz7dUq5-_0DB-15" target="UBEUGFPFDz7dUq5-_0DB-16">
          <mxGeometry relative="1" as="geometry" />
        </mxCell>
        <mxCell id="UBEUGFPFDz7dUq5-_0DB-15" value="" style="shape=delay;whiteSpace=wrap;html=1;rotation=90;" vertex="1" parent="1">
          <mxGeometry x="480" y="275" width="20" height="30" as="geometry" />
        </mxCell>
        <mxCell id="UBEUGFPFDz7dUq5-_0DB-23" value="" style="edgeStyle=orthogonalEdgeStyle;rounded=0;orthogonalLoop=1;jettySize=auto;html=1;" edge="1" parent="1" source="UBEUGFPFDz7dUq5-_0DB-16" target="UBEUGFPFDz7dUq5-_0DB-22">
          <mxGeometry relative="1" as="geometry" />
        </mxCell>
        <mxCell id="UBEUGFPFDz7dUq5-_0DB-16" value="" style="shape=orEllipse;perimeter=ellipsePerimeter;whiteSpace=wrap;html=1;backgroundOutline=1;" vertex="1" parent="1">
          <mxGeometry x="480" y="330" width="20" height="20" as="geometry" />
        </mxCell>
        <mxCell id="UBEUGFPFDz7dUq5-_0DB-30" style="edgeStyle=orthogonalEdgeStyle;rounded=0;orthogonalLoop=1;jettySize=auto;html=1;entryX=1;entryY=0.5;entryDx=0;entryDy=0;" edge="1" parent="1" source="UBEUGFPFDz7dUq5-_0DB-22" target="UBEUGFPFDz7dUq5-_0DB-24">
          <mxGeometry relative="1" as="geometry" />
        </mxCell>
        <mxCell id="UBEUGFPFDz7dUq5-_0DB-22" value="1" style="rounded=0;whiteSpace=wrap;html=1;" vertex="1" parent="1">
          <mxGeometry x="420" y="320" width="40" height="40" as="geometry" />
        </mxCell>
        <mxCell id="UBEUGFPFDz7dUq5-_0DB-24" value="" style="shape=orEllipse;perimeter=ellipsePerimeter;whiteSpace=wrap;html=1;backgroundOutline=1;" vertex="1" parent="1">
          <mxGeometry x="380" y="330" width="20" height="20" as="geometry" />
        </mxCell>
        <mxCell id="UBEUGFPFDz7dUq5-_0DB-32" style="edgeStyle=orthogonalEdgeStyle;rounded=0;orthogonalLoop=1;jettySize=auto;html=1;entryX=0.5;entryY=0;entryDx=0;entryDy=0;" edge="1" parent="1" source="UBEUGFPFDz7dUq5-_0DB-31" target="UBEUGFPFDz7dUq5-_0DB-24">
          <mxGeometry relative="1" as="geometry" />
        </mxCell>
        <mxCell id="UBEUGFPFDz7dUq5-_0DB-31" value="" style="shape=delay;whiteSpace=wrap;html=1;rotation=90;" vertex="1" parent="1">
          <mxGeometry x="380" y="275" width="20" height="30" as="geometry" />
        </mxCell>
        <mxCell id="UBEUGFPFDz7dUq5-_0DB-33" style="edgeStyle=orthogonalEdgeStyle;rounded=0;orthogonalLoop=1;jettySize=auto;html=1;entryX=0.017;entryY=0.156;entryDx=0;entryDy=0;entryPerimeter=0;" edge="1" parent="1" source="UBEUGFPFDz7dUq5-_0DB-7" target="UBEUGFPFDz7dUq5-_0DB-31">
          <mxGeometry relative="1" as="geometry" />
        </mxCell>
        <mxCell id="UBEUGFPFDz7dUq5-_0DB-34" value="" style="endArrow=classic;html=1;rounded=0;edgeStyle=orthogonalEdgeStyle;entryX=-0.003;entryY=0.832;entryDx=0;entryDy=0;entryPerimeter=0;" edge="1" parent="1" target="UBEUGFPFDz7dUq5-_0DB-15">
          <mxGeometry width="50" height="50" relative="1" as="geometry">
            <mxPoint x="600" y="340" as="sourcePoint" />
            <mxPoint x="470" y="270" as="targetPoint" />
            <Array as="points">
              <mxPoint x="600" y="260" />
              <mxPoint x="480" y="260" />
            </Array>
          </mxGeometry>
        </mxCell>
        <mxCell id="UBEUGFPFDz7dUq5-_0DB-35" value="" style="endArrow=oval;html=1;rounded=0;edgeStyle=orthogonalEdgeStyle;startArrow=oval;startFill=1;endFill=1;" edge="1" parent="1">
          <mxGeometry width="50" height="50" relative="1" as="geometry">
            <mxPoint x="480" y="260" as="sourcePoint" />
            <mxPoint x="380" y="260" as="targetPoint" />
          </mxGeometry>
        </mxCell>
        <mxCell id="UBEUGFPFDz7dUq5-_0DB-36" value="" style="endArrow=none;dashed=1;html=1;dashPattern=1 3;strokeWidth=2;rounded=0;" edge="1" parent="1">
          <mxGeometry width="50" height="50" relative="1" as="geometry">
            <mxPoint x="230" y="339.83" as="sourcePoint" />
            <mxPoint x="370" y="339.83" as="targetPoint" />
          </mxGeometry>
        </mxCell>
        <mxCell id="UBEUGFPFDz7dUq5-_0DB-46" style="edgeStyle=orthogonalEdgeStyle;rounded=0;orthogonalLoop=1;jettySize=auto;html=1;entryX=1;entryY=0.5;entryDx=0;entryDy=0;" edge="1" parent="1" source="UBEUGFPFDz7dUq5-_0DB-37" target="UBEUGFPFDz7dUq5-_0DB-45">
          <mxGeometry relative="1" as="geometry" />
        </mxCell>
        <mxCell id="UBEUGFPFDz7dUq5-_0DB-37" value="" style="shape=orEllipse;perimeter=ellipsePerimeter;whiteSpace=wrap;html=1;backgroundOutline=1;" vertex="1" parent="1">
          <mxGeometry x="200" y="330" width="20" height="20" as="geometry" />
        </mxCell>
        <mxCell id="UBEUGFPFDz7dUq5-_0DB-44" style="edgeStyle=orthogonalEdgeStyle;rounded=0;orthogonalLoop=1;jettySize=auto;html=1;entryX=0.5;entryY=0;entryDx=0;entryDy=0;" edge="1" parent="1" source="UBEUGFPFDz7dUq5-_0DB-38" target="UBEUGFPFDz7dUq5-_0DB-37">
          <mxGeometry relative="1" as="geometry" />
        </mxCell>
        <mxCell id="UBEUGFPFDz7dUq5-_0DB-38" value="" style="shape=delay;whiteSpace=wrap;html=1;rotation=90;" vertex="1" parent="1">
          <mxGeometry x="200" y="275" width="20" height="30" as="geometry" />
        </mxCell>
        <mxCell id="UBEUGFPFDz7dUq5-_0DB-40" value="" style="endArrow=classic;html=1;rounded=0;entryX=0;entryY=0.833;entryDx=0;entryDy=0;entryPerimeter=0;" edge="1" parent="1" target="UBEUGFPFDz7dUq5-_0DB-31">
          <mxGeometry width="50" height="50" relative="1" as="geometry">
            <mxPoint x="380" y="260" as="sourcePoint" />
            <mxPoint x="410" y="230" as="targetPoint" />
          </mxGeometry>
        </mxCell>
        <mxCell id="UBEUGFPFDz7dUq5-_0DB-41" value="" style="endArrow=oval;html=1;rounded=0;edgeStyle=orthogonalEdgeStyle;startArrow=oval;startFill=1;endFill=1;dashed=1;dashPattern=1 2;strokeWidth=2;" edge="1" parent="1">
          <mxGeometry width="50" height="50" relative="1" as="geometry">
            <mxPoint x="380" y="260" as="sourcePoint" />
            <mxPoint x="200" y="260" as="targetPoint" />
          </mxGeometry>
        </mxCell>
        <mxCell id="UBEUGFPFDz7dUq5-_0DB-42" value="" style="endArrow=classic;html=1;rounded=0;entryX=-0.003;entryY=0.841;entryDx=0;entryDy=0;entryPerimeter=0;" edge="1" parent="1" target="UBEUGFPFDz7dUq5-_0DB-38">
          <mxGeometry width="50" height="50" relative="1" as="geometry">
            <mxPoint x="200" y="260" as="sourcePoint" />
            <mxPoint x="370" y="210" as="targetPoint" />
          </mxGeometry>
        </mxCell>
        <mxCell id="UBEUGFPFDz7dUq5-_0DB-43" style="edgeStyle=orthogonalEdgeStyle;rounded=0;orthogonalLoop=1;jettySize=auto;html=1;entryX=0;entryY=0.167;entryDx=0;entryDy=0;entryPerimeter=0;" edge="1" parent="1" source="UBEUGFPFDz7dUq5-_0DB-3" target="UBEUGFPFDz7dUq5-_0DB-38">
          <mxGeometry relative="1" as="geometry" />
        </mxCell>
        <mxCell id="UBEUGFPFDz7dUq5-_0DB-47" style="edgeStyle=orthogonalEdgeStyle;rounded=0;orthogonalLoop=1;jettySize=auto;html=1;entryX=0.5;entryY=1;entryDx=0;entryDy=0;" edge="1" parent="1" source="UBEUGFPFDz7dUq5-_0DB-45" target="UBEUGFPFDz7dUq5-_0DB-12">
          <mxGeometry relative="1" as="geometry">
            <Array as="points">
              <mxPoint x="120" y="340" />
              <mxPoint x="120" y="390" />
              <mxPoint x="640" y="390" />
            </Array>
          </mxGeometry>
        </mxCell>
        <mxCell id="UBEUGFPFDz7dUq5-_0DB-45" value="N-1" style="rounded=0;whiteSpace=wrap;html=1;" vertex="1" parent="1">
          <mxGeometry x="140" y="320" width="40" height="40" as="geometry" />
        </mxCell>
        <mxCell id="UBEUGFPFDz7dUq5-_0DB-53" style="edgeStyle=orthogonalEdgeStyle;rounded=0;orthogonalLoop=1;jettySize=auto;html=1;" edge="1" parent="1" source="UBEUGFPFDz7dUq5-_0DB-48">
          <mxGeometry relative="1" as="geometry">
            <mxPoint x="120" y="210" as="targetPoint" />
          </mxGeometry>
        </mxCell>
        <mxCell id="UBEUGFPFDz7dUq5-_0DB-57" style="edgeStyle=orthogonalEdgeStyle;rounded=0;orthogonalLoop=1;jettySize=auto;html=1;" edge="1" parent="1" source="UBEUGFPFDz7dUq5-_0DB-48">
          <mxGeometry relative="1" as="geometry">
            <mxPoint x="120" y="330" as="targetPoint" />
          </mxGeometry>
        </mxCell>
        <mxCell id="UBEUGFPFDz7dUq5-_0DB-48" value="always &lt;br&gt;enabled" style="text;html=1;align=center;verticalAlign=middle;resizable=0;points=[];autosize=1;strokeColor=none;fillColor=none;rotation=90;spacing=0;" vertex="1" parent="1">
          <mxGeometry x="90" y="250" width="60" height="40" as="geometry" />
        </mxCell>
        <mxCell id="UBEUGFPFDz7dUq5-_0DB-50" style="edgeStyle=orthogonalEdgeStyle;rounded=0;orthogonalLoop=1;jettySize=auto;html=1;entryX=1;entryY=0.5;entryDx=0;entryDy=0;" edge="1" parent="1" source="UBEUGFPFDz7dUq5-_0DB-49" target="UBEUGFPFDz7dUq5-_0DB-12">
          <mxGeometry relative="1" as="geometry" />
        </mxCell>
        <mxCell id="UBEUGFPFDz7dUq5-_0DB-49" value="input" style="text;html=1;align=center;verticalAlign=middle;resizable=0;points=[];autosize=1;strokeColor=none;fillColor=none;" vertex="1" parent="1">
          <mxGeometry x="690" y="325" width="50" height="30" as="geometry" />
        </mxCell>
        <mxCell id="UBEUGFPFDz7dUq5-_0DB-51" value="Polynomial Register" style="text;html=1;align=center;verticalAlign=middle;resizable=0;points=[];autosize=1;strokeColor=none;fillColor=none;" vertex="1" parent="1">
          <mxGeometry x="-40" y="165" width="130" height="30" as="geometry" />
        </mxCell>
        <mxCell id="UBEUGFPFDz7dUq5-_0DB-52" value="Shift Register" style="text;html=1;align=center;verticalAlign=middle;resizable=0;points=[];autosize=1;strokeColor=none;fillColor=none;" vertex="1" parent="1">
          <mxGeometry x="-25" y="325" width="100" height="30" as="geometry" />
        </mxCell>
      </root>
    </mxGraphModel>
  </diagram>
</mxfile>
